<svg width="1029" height="910" viewBox="0 0 1029 910" fill="none" xmlns="http://www.w3.org/2000/svg">
<path d="M523.93 3.39146C485.03 15.7762 463.476 57.5745 475.793 96.5863L524.854 252.014L468.916 360.483L322.963 350.266L96.7472 275.855C57.9497 263.057 16.2782 284.318 3.65365 323.329C-8.97094 362.341 12.1727 404.243 50.8676 417.04L163.462 454.091L114.709 496.715C83.9173 523.652 80.6329 570.507 107.422 601.469C134.21 632.431 180.808 635.733 211.6 608.797L333.946 501.875L456.086 510.441L477.743 579.073L296.072 621.801C256.351 631.192 231.717 671.133 240.955 710.97C250.192 750.911 289.914 775.68 329.738 766.289L535.529 717.885L615.998 870.526C635.191 906.752 679.839 920.581 715.865 901.282C739.267 888.794 753.226 865.469 754.971 840.803C755.894 827.386 753.226 813.557 746.554 800.863L642.478 603.636L593.006 446.867L658.388 320.13L979.647 197.315C1008.28 187.201 1026.86 161.09 1028.81 132.502C1029.53 122.697 1028.2 112.583 1024.81 102.675C1011.26 64.0765 969.076 43.6417 930.586 57.2649L652.434 164.805L616.819 51.795C604.502 12.68 563.036 -8.89003 524.136 3.49467" fill="#D9D9D9"/>
</svg>
