<svg width="32" height="32" viewBox="0 0 32 32" fill="none" xmlns="http://www.w3.org/2000/svg">
<path d="M16.2933 2.10435C15.0835 2.48542 14.4133 3.77152 14.7963 4.97189L16.322 9.75428L14.5824 13.0918L10.0436 12.7774L3.00866 10.4878C1.80213 10.0941 0.506223 10.7482 0.113622 11.9486C-0.27898 13.149 0.378548 14.4382 1.58189 14.832L5.08338 15.972L3.56724 17.2835C2.60967 18.1124 2.50753 19.5541 3.34061 20.5067C4.1737 21.4594 5.62281 21.561 6.58037 20.7322L10.3851 17.4423L14.1834 17.7059L14.8569 19.8176L9.20729 21.1323C7.97204 21.4213 7.20598 22.6502 7.49325 23.876C7.78052 25.105 9.01578 25.8671 10.2542 25.5781L16.654 24.0888L19.1564 28.7854C19.7533 29.9001 21.1417 30.3256 22.2621 29.7317C22.9898 29.3475 23.4239 28.6298 23.4782 27.8709C23.5069 27.458 23.4239 27.0325 23.2165 26.6419L19.9799 20.5734L18.4414 15.7497L20.4746 11.8502L30.4652 8.07124C31.3558 7.76003 31.9335 6.95661 31.9941 6.07698C32.0165 5.7753 31.975 5.4641 31.8697 5.15924C31.4483 3.97158 30.1365 3.34282 28.9395 3.762L20.2895 7.07093L19.1819 3.59369C18.7989 2.39015 17.5094 1.72646 16.2997 2.10753" fill="#F26649"/>
</svg>
